<svg width="801" height="373" viewBox="0 0 801 373" fill="none" xmlns="http://www.w3.org/2000/svg">
<path d="M2.85297 351.032H797.859C799.451 351 800.712 350.258 800.712 349.353C800.712 348.448 799.451 347.706 797.859 347.674H2.85297C1.26197 347.706 0 348.448 0 349.353C0 350.258 1.26197 351.001 2.85297 351.032Z" fill="#F2F2F2"/>
<path d="M620.66 348.636C620.66 348.636 623.46 331.084 648.047 331.241L620.66 348.636Z" fill="#084814"/>
<path d="M703.316 348.636C703.316 348.636 706.116 331.084 730.703 331.241L703.316 348.636Z" fill="#084814"/>
<path d="M620.597 348.813C620.597 348.813 609.614 325.401 640.852 306.177L620.597 348.813Z" fill="#084814"/>
<path d="M657.439 348.539C657.439 348.539 648.062 325.458 676.192 308.147L657.439 348.539Z" fill="#084814"/>
<path d="M656.902 347.673C656.902 347.673 666.742 334.183 651.255 318.362L656.902 347.673Z" fill="#084814"/>
<path d="M677.024 332.79C678.204 333.205 679.472 333.309 680.704 333.092C681.936 332.875 683.091 332.344 684.059 331.551C686.523 329.483 687.296 326.076 687.924 322.921L689.783 313.589L685.891 316.269C683.091 318.196 680.229 320.186 678.291 322.978C676.353 325.77 675.507 329.578 677.064 332.602" fill="#084814"/>
<path d="M677.623 344.738C676.991 341.178 676.773 337.556 676.974 333.945C677.197 330.728 678.333 327.641 680.247 325.045C681.304 323.685 682.59 322.521 684.047 321.603C684.427 321.363 684.776 321.965 684.398 322.203C681.878 323.796 679.928 326.148 678.831 328.92C677.724 332.033 677.315 335.351 677.631 338.639C677.757 340.619 678.025 342.587 678.295 344.552C678.316 344.641 678.303 344.734 678.258 344.814C678.213 344.893 678.139 344.953 678.052 344.98C677.963 345.004 677.868 344.992 677.788 344.947C677.708 344.901 677.649 344.826 677.624 344.737L677.623 344.738Z" fill="#084814"/>
<path d="M681.149 339.011C681.655 339.781 682.351 340.407 683.169 340.83C683.988 341.252 684.901 341.457 685.822 341.424C688.188 341.311 690.16 339.661 691.935 338.093L697.186 333.457L693.711 333.291C691.218 333.022 688.696 333.205 686.268 333.831C683.888 334.602 681.693 336.456 681.258 338.92" fill="#084814"/>
<path d="M676.239 346.79C678.598 342.616 681.333 337.978 686.222 336.495C687.582 336.084 689.007 335.937 690.422 336.061C690.868 336.099 690.756 336.786 690.312 336.748C687.941 336.551 685.575 337.177 683.612 338.521C681.766 339.86 680.202 341.549 679.007 343.491C678.244 344.653 677.561 345.863 676.878 347.072C676.657 347.46 676.019 347.181 676.239 346.79Z" fill="#084814"/>
<path d="M703.253 348.813C703.253 348.813 692.27 325.401 723.508 306.177L703.253 348.813Z" fill="#084814"/>
<path d="M740.095 348.539C740.095 348.539 730.718 325.458 758.848 308.147L740.095 348.539Z" fill="#084814"/>
<path d="M739.558 347.673C739.558 347.673 749.398 334.183 733.911 318.362L739.558 347.673Z" fill="#084814"/>
<path d="M759.68 332.79C760.86 333.205 762.128 333.309 763.36 333.092C764.592 332.875 765.747 332.344 766.715 331.551C769.179 329.483 769.952 326.076 770.58 322.921L772.439 313.589L768.547 316.269C765.747 318.196 762.885 320.186 760.947 322.978C759.009 325.77 758.163 329.578 759.72 332.602" fill="#084814"/>
<path d="M760.279 344.738C759.647 341.178 759.429 337.556 759.63 333.945C759.853 330.728 760.989 327.641 762.903 325.045C763.96 323.685 765.246 322.521 766.703 321.603C767.083 321.363 767.432 321.965 767.054 322.203C764.534 323.796 762.584 326.148 761.487 328.92C760.38 332.033 759.971 335.351 760.287 338.639C760.413 340.619 760.681 342.587 760.951 344.552C760.972 344.641 760.959 344.734 760.914 344.814C760.869 344.893 760.795 344.953 760.708 344.98C760.619 345.004 760.524 344.992 760.444 344.947C760.364 344.901 760.305 344.826 760.28 344.737L760.279 344.738Z" fill="#084814"/>
<path d="M763.805 339.011C764.311 339.781 765.007 340.407 765.825 340.83C766.644 341.252 767.557 341.457 768.478 341.424C770.844 341.311 772.816 339.661 774.591 338.093L779.842 333.457L776.367 333.291C773.874 333.022 771.352 333.205 768.924 333.831C766.544 334.602 764.349 336.456 763.914 338.92" fill="#084814"/>
<path d="M758.895 346.79C761.254 342.616 763.989 337.978 768.878 336.495C770.238 336.084 771.663 335.937 773.078 336.061C773.524 336.099 773.412 336.786 772.968 336.748C770.597 336.551 768.231 337.177 766.268 338.521C764.422 339.86 762.858 341.549 761.663 343.491C760.9 344.653 760.217 345.863 759.534 347.072C759.313 347.46 758.675 347.181 758.895 346.79Z" fill="#084814"/>
<path d="M477.099 348.539C477.099 348.539 467.722 325.458 495.852 308.147L477.099 348.539Z" fill="#084814"/>
<path d="M476.562 347.673C476.562 347.673 486.402 334.183 470.915 318.362L476.562 347.673Z" fill="#084814"/>
<path d="M496.684 332.79C497.864 333.205 499.132 333.309 500.364 333.092C501.596 332.875 502.751 332.344 503.719 331.551C506.183 329.483 506.956 326.076 507.584 322.921L509.443 313.589L505.551 316.269C502.751 318.196 499.889 320.186 497.951 322.978C496.013 325.77 495.167 329.578 496.724 332.602" fill="#084814"/>
<path d="M497.283 344.738C496.651 341.178 496.433 337.556 496.634 333.945C496.857 330.728 497.993 327.641 499.907 325.045C500.964 323.685 502.25 322.521 503.707 321.603C504.087 321.363 504.436 321.965 504.058 322.203C501.538 323.796 499.588 326.148 498.491 328.92C497.384 332.033 496.975 335.351 497.291 338.639C497.417 340.619 497.685 342.587 497.955 344.552C497.976 344.641 497.963 344.734 497.918 344.814C497.873 344.893 497.799 344.953 497.712 344.98C497.623 345.004 497.528 344.992 497.448 344.947C497.368 344.901 497.309 344.826 497.284 344.737L497.283 344.738Z" fill="#084814"/>
<path d="M500.809 339.011C501.315 339.781 502.011 340.407 502.829 340.83C503.648 341.252 504.561 341.457 505.482 341.424C507.848 341.311 509.82 339.661 511.595 338.093L516.846 333.457L513.371 333.291C510.878 333.022 508.356 333.205 505.928 333.831C503.548 334.602 501.353 336.456 500.918 338.92" fill="#084814"/>
<path d="M495.899 346.79C498.258 342.616 500.993 337.978 505.882 336.495C507.241 336.084 508.667 335.937 510.082 336.061C510.528 336.099 510.416 336.786 509.972 336.748C507.601 336.551 505.235 337.177 503.272 338.521C501.426 339.86 499.862 341.549 498.667 343.491C497.904 344.653 497.221 345.863 496.538 347.072C496.317 347.46 495.679 347.181 495.899 346.79Z" fill="#084814"/>
<path d="M522.913 348.813C522.913 348.813 511.93 325.401 543.168 306.177L522.913 348.813Z" fill="#084814"/>
<path d="M559.755 348.539C559.755 348.539 550.378 325.458 578.508 308.147L559.755 348.539Z" fill="#084814"/>
<path d="M559.218 347.673C559.218 347.673 569.058 334.183 553.571 318.362L559.218 347.673Z" fill="#084814"/>
<path d="M584.714 325.862C586.459 326.475 588.332 326.629 590.154 326.308C591.975 325.987 593.684 325.203 595.114 324.03C598.758 320.972 599.9 315.93 600.829 311.269L603.578 297.469L597.826 301.437C593.687 304.287 589.454 307.229 586.588 311.357C583.722 315.485 582.472 321.122 584.774 325.589" fill="#084814"/>
<path d="M585.601 343.53C584.877 338.252 584.131 332.905 584.641 327.57C584.972 322.813 586.651 318.248 589.481 314.41C591.043 312.4 592.944 310.677 595.098 309.32C595.66 308.966 596.176 309.855 595.617 310.208C591.89 312.564 589.008 316.042 587.385 320.141C585.75 324.744 585.145 329.65 585.614 334.512C585.801 337.44 586.197 340.35 586.595 343.255C586.626 343.386 586.607 343.525 586.54 343.642C586.474 343.76 586.365 343.848 586.236 343.888C586.104 343.923 585.964 343.906 585.846 343.838C585.727 343.771 585.64 343.66 585.603 343.529L585.601 343.53Z" fill="#084814"/>
<path d="M590.815 335.06C591.563 336.198 592.592 337.124 593.803 337.749C595.013 338.374 596.364 338.677 597.725 338.628C601.225 338.462 604.139 336.021 606.764 333.703L614.528 326.847L609.39 326.601C605.69 326.424 601.904 326.258 598.384 327.401C594.864 328.544 591.618 331.284 590.975 334.927" fill="#084814"/>
<path d="M583.555 346.565C587.043 340.393 591.088 333.534 598.317 331.342C600.327 330.735 602.434 330.517 604.526 330.701C605.185 330.758 605.021 331.774 604.363 331.717C600.857 331.426 597.358 332.351 594.455 334.338C591.726 336.319 589.412 338.816 587.645 341.688C586.517 343.406 585.507 345.196 584.497 346.988C584.173 347.557 583.229 347.143 583.555 346.565Z" fill="#084814"/>
<path d="M307.047 166.589C320.131 168.594 329.702 176.971 328.425 185.298C327.148 193.625 315.506 198.747 302.417 196.739C297.178 196.009 292.19 194.034 287.87 190.981L232.534 181.78L236.227 159.909L291.433 167.721C296.471 166.102 301.823 165.712 307.042 166.586L307.047 166.589Z" fill="#9F616A"/>
<path d="M68.6151 98.4141L90.0701 143.94L197.926 180.248L287.426 185.023L289.667 163.523L192.667 143.242L93.1371 96.2081L68.6151 98.4141Z" fill="#E6E6E6"/>
<path d="M267.54 271.279L286.802 320L311.729 303L296.999 252.013L267.54 271.279Z" fill="#9F616A"/>
<path d="M347.988 253.15L396.861 309.785L372.75 325.097L326.46 282.609L347.988 253.15Z" fill="#9F616A"/>
<path d="M59.0591 94.5231L59.6261 90.5571L72.6561 65.0631L115.712 76.3941L107.779 111.523L59.0591 94.5231Z" fill="#9F616A"/>
<path d="M77.1861 264.481L75.8621 281.499C75.8621 281.499 70.3881 352.859 114.577 358.524C158.766 364.189 178.028 369.854 204.089 325.666L244.879 253.151L268.704 281.5L300.398 256.551C300.398 256.551 277.737 168.173 259.608 164.774C257.376 164.361 255.114 164.132 252.845 164.09C245.432 164.01 238.106 165.698 231.475 169.012C224.843 172.326 219.096 177.172 214.709 183.148L163.298 252.019L144.598 243.519L77.1811 264.481H77.1861Z" fill="#2F2E41"/>
<path d="M322.762 318.051L311.508 302.869L286.383 319.079C286.383 319.079 280.147 341.688 289.501 344.771C298.855 347.854 324.84 343.743 324.84 343.743C324.84 343.743 372.652 354.02 373.691 344.771C374.73 335.522 351.864 333.471 351.864 333.471L322.764 318.056L322.762 318.051Z" fill="#9F616A"/>
<path d="M210.887 304.137L289.635 254.519L329.859 290.54L357.052 258.815C357.052 258.815 307.198 185.167 292.468 181.768C277.738 178.369 253.944 176.103 253.944 176.103L181.427 242.952L210.887 304.137Z" fill="#2F2E41"/>
<path d="M372.161 324.263L373.372 327.538C373.372 327.538 373.511 351.416 387.867 346.664C402.223 341.911 403.525 340.377 403.525 340.377C403.525 340.377 437.682 356.522 444.493 343.412C451.304 330.302 440.813 330.633 440.813 330.633L430.626 333.786L395.697 308.452L372.161 324.263Z" fill="#9F616A"/>
<path d="M102.113 88.8581C122.138 88.8581 138.371 72.6248 138.371 52.6001C138.371 32.5754 122.138 16.3421 102.113 16.3421C82.0883 16.3421 65.8551 32.5754 65.8551 52.6001C65.8551 72.6248 82.0883 88.8581 102.113 88.8581Z" fill="#9F616A"/>
<path d="M110.611 104.154L58.4901 88.2911C58.4901 88.2911 38.0901 135.879 41.4901 157.407C44.8901 178.935 75.8571 281.498 75.8571 281.498L144.598 243.518C144.598 243.518 145.731 220.857 149.13 210.66C152.529 200.463 163.293 169.304 139.499 143.243C115.705 117.182 110.606 104.153 110.606 104.153L110.611 104.154Z" fill="#E6E6E6"/>
<path d="M225.325 342.073C233.807 352.235 235.44 364.849 228.971 370.246C222.502 375.643 210.386 371.779 201.902 361.613C198.456 357.599 196.021 352.817 194.802 347.669L159.402 304.158L176.644 290.205L212.864 332.595C217.713 334.715 221.983 337.965 225.318 342.074L225.325 342.073Z" fill="#9F616A"/>
<path d="M70.6331 127.013L58.3141 175.813L118.614 272.33L180.167 334.192L200.118 317.641L138.035 240.394L90.9811 140.874L70.6331 127.013Z" fill="#E6E6E6"/>
<path d="M135.541 46.3691C126.241 46.3471 125.714 46.4091 124.21 46.3691C112.677 46.0691 109.661 41.5271 103.81 41.8371C93.3761 42.3891 107.147 94.7001 112.874 118.884C118.491 142.602 99.5081 163.856 98.1441 165.339C78.8801 186.297 45.0411 190.125 39.2291 181.197C34.5291 173.974 51.1871 162.997 47.1601 147.205C43.2241 131.773 25.0471 133.416 19.9671 118.879C14.6461 103.654 32.5271 95.9791 43.7611 58.8271C50.2131 37.4931 49.0711 33.5171 55.0921 20.3031C71.1841 -15.0169 150.059 0.0210915 141.204 32.7671C139.491 39.1011 144.05 46.3841 135.539 46.3671L135.541 46.3691Z" fill="#2F2E41"/>
<path d="M232.784 332.218C235.796 333.649 239.127 334.279 242.454 334.049C245.781 333.819 248.993 332.735 251.779 330.903C258.89 326.11 261.891 317.295 264.442 309.107L271.978 284.887L260.91 290.904C252.95 295.23 244.806 299.704 238.887 306.562C232.967 313.421 229.66 323.289 232.942 331.733" fill="#084814"/>
<path d="M231.03 364.059C230.73 354.46 230.406 344.734 232.325 335.266C234.031 326.857 237.498 318.836 243.491 312.589C246.672 309.28 250.406 306.552 254.525 304.526C255.599 303.998 256.357 305.691 255.288 306.217C248.161 309.735 242.335 315.427 238.651 322.47C234.576 330.301 233.122 339.156 232.756 347.895C232.536 353.18 232.694 358.471 232.861 363.755C232.893 363.997 232.831 364.241 232.689 364.44C232.548 364.638 232.336 364.774 232.097 364.822C231.854 364.861 231.606 364.802 231.407 364.659C231.207 364.516 231.072 364.301 231.03 364.059Z" fill="#084814"/>
<path d="M241.98 349.862C243.105 352.045 244.775 353.9 246.826 355.25C248.877 356.599 251.241 357.398 253.691 357.568C259.991 357.931 265.684 354.105 270.826 350.449L286.043 339.624L276.878 338.211C270.287 337.195 263.523 336.18 256.997 337.559C250.471 338.938 244.134 343.24 242.291 349.65" fill="#084814"/>
<path d="M226.789 369.118C234.209 358.713 242.758 347.183 256.136 344.621C259.851 343.912 263.667 343.919 267.38 344.641C268.551 344.865 268.063 346.658 266.895 346.432C260.666 345.248 254.22 346.246 248.64 349.258C243.272 352.139 238.872 356.468 235.041 361.145C232.694 364.01 230.545 367.029 228.396 370.044C227.709 371.006 226.095 370.089 226.789 369.118Z" fill="#084814"/>
</svg>
