<svg width="770" height="940" viewBox="0 0 770 940" fill="none" xmlns="http://www.w3.org/2000/svg">
<path d="M337.863 352.1L41.2916 352.2C34.0469 352.229 26.9231 350.344 20.641 346.735C14.3589 343.127 9.1416 337.923 5.51701 331.65C1.89243 325.377 -0.0107654 318.258 4.58044e-05 311.014C0.010857 303.769 1.93529 296.656 5.57858 290.394L153.77 20.6196C157.385 14.353 162.586 9.14835 168.85 5.52886C175.114 1.90937 182.221 0.00253617 189.455 2.52817e-06C196.69 -0.00253111 203.798 1.89932 210.065 5.51442C216.331 9.12952 221.536 14.3305 225.156 20.5946L373.556 290.295C377.168 296.559 379.068 303.664 379.065 310.895C379.063 318.126 377.157 325.23 373.541 331.492C369.925 337.754 364.724 342.954 358.462 346.571C352.2 350.187 345.097 352.092 337.866 352.095L337.863 352.1ZM3.72659 310.994C3.72659 317.436 36.4516 303.554 39.8416 309.422C46.6236 321.158 27.7346 348.484 41.2896 348.479C41.2896 348.479 363.551 341.359 370.325 329.618C373.651 323.929 375.404 317.458 375.401 310.868C375.399 304.279 373.642 297.808 370.311 292.123L221.914 22.4226C218.649 16.7063 213.922 11.9615 208.218 8.67527C202.514 5.38903 196.038 3.67967 189.456 3.72258C175.907 3.72258 3.72658 304.556 3.72558 311L3.72659 310.994Z" fill="#4B5563"/>
<path d="M197.157 317.281C254.18 317.281 300.407 271.054 300.407 214.031C300.407 157.007 254.18 110.781 197.157 110.781C140.133 110.781 93.9066 157.007 93.9066 214.031C93.9066 271.054 140.133 317.281 197.157 317.281Z" fill="#9F0712"/>
<path d="M188.988 240.54L187.905 149.27H206.323L205.149 240.54H188.988ZM197.204 278.795C195.599 278.821 194.006 278.518 192.523 277.904C191.04 277.291 189.699 276.38 188.582 275.229C187.452 274.104 186.555 272.768 185.943 271.296C185.331 269.824 185.017 268.246 185.017 266.652C185.017 265.058 185.331 263.479 185.943 262.007C186.555 260.535 187.452 259.199 188.582 258.075C189.699 256.923 191.04 256.012 192.523 255.399C194.006 254.785 195.599 254.482 197.204 254.509C198.802 254.48 200.389 254.782 201.865 255.396C203.341 256.009 204.674 256.921 205.781 258.075C206.921 259.198 207.821 260.542 208.426 262.024C209.031 263.506 209.329 265.096 209.302 266.697C209.323 268.283 209.022 269.858 208.417 271.324C207.812 272.791 206.915 274.12 205.781 275.23C204.674 276.383 203.341 277.295 201.865 277.909C200.389 278.522 198.802 278.824 197.204 278.796V278.795Z" fill="white"/>
<path d="M769.959 938.107H418V939.235H769.959V938.107Z" fill="#E6E6E6"/>
<path d="M610.118 425.397C625.694 425.397 638.32 412.771 638.32 397.195C638.32 381.619 625.694 368.993 610.118 368.993C594.543 368.993 581.916 381.619 581.916 397.195C581.916 412.771 594.543 425.397 610.118 425.397Z" fill="#ED9DA0"/>
<path d="M624.783 411.859C624.783 411.859 628.167 445.701 633.808 451.342C639.449 456.983 594.325 447.958 594.325 447.958C594.325 447.958 601.093 419.758 596.581 415.244C592.069 410.73 624.783 411.859 624.783 411.859Z" fill="#ED9DA0"/>
<path d="M644.525 468.828C644.525 468.828 658.062 507.183 661.446 530.872C664.83 554.561 664.83 564.714 664.83 564.714C664.83 564.714 679.495 609.837 674.983 631.27C674.983 631.27 691.904 682.033 677.239 682.033C662.574 682.033 658.062 640.294 658.062 640.294L635.5 533.128L644.525 468.828Z" fill="#ED9DA0"/>
<path d="M651.293 486.872C651.293 486.872 647.909 445.133 633.244 441.749C626.244 440.133 614.871 437.749 604.897 435.693C587.522 432.116 569.597 440.359 561.703 456.243C560.222 459.124 559.237 462.234 558.791 465.443C556.535 483.492 545.254 483.492 555.407 507.182C565.56 530.872 563.307 555.689 563.307 555.689L570.075 615.477C570.075 615.477 541.87 694.442 544.13 747.462L518.18 877.19C518.18 877.19 523.82 890.727 539.613 883.958C539.613 883.958 579.096 817.402 575.713 768.894L616.324 678.648C616.324 678.648 644.524 764.382 652.424 772.278L672.73 894.112C672.73 894.112 691.907 899.752 700.93 894.112C700.93 894.112 704.314 776.792 685.137 757.612C685.137 757.612 665.96 676.391 670.472 654.957C674.984 633.523 676.112 600.809 642.272 571.479C642.272 571.479 646.784 559.07 632.119 552.302L643.4 516.202L651.293 486.872Z" fill="#3F3E52"/>
<path d="M580.54 438.798C580.235 438.754 579.924 438.718 579.607 438.689C569.619 437.789 561.019 445.763 560.573 455.782L558.791 495.898L537.359 634.656C537.359 634.656 509.159 668.498 528.334 670.756C547.509 673.014 550.896 633.53 550.896 633.53L575.714 559.077L585.867 490.264C585.867 490.264 597.709 478.422 592.78 451.046C592.279 447.98 590.828 445.149 588.632 442.951C586.436 440.754 583.606 439.301 580.54 438.798Z" fill="#ED9DA0"/>
<path d="M515.923 872.678L508.023 913.289C508.023 913.289 488.846 922.314 501.255 933.594C513.664 944.874 530.585 931.338 530.585 931.338L535.097 917.801L533.969 938.106H537.353L540.737 917.801C540.737 917.801 547.505 905.392 542.993 895.239V881.703L515.923 872.678Z" fill="#2F2E41"/>
<path d="M669.906 876.627L665.394 913.853C665.394 913.853 646.217 922.878 658.625 934.158C671.033 945.438 687.955 931.902 687.955 931.902L692.467 918.365L691.339 938.67H694.723L698.107 918.365C698.107 918.365 704.875 905.956 700.363 895.803V882.267L669.906 876.627Z" fill="#2F2E41"/>
<path d="M624.829 353.605C623.247 353.608 621.669 353.765 620.118 354.073C617.315 352.712 614.241 352.004 611.125 352H610.309C594.571 352 581.809 366.241 581.809 383.808H587.082L587.934 377.326L589.183 383.808H593.576C592.21 389.009 591.524 394.366 591.536 399.744V432.119H599.509L604.125 420.119L602.971 432.119H654.217L658.417 421.219L657.368 432.119H663.138V406.699C663.137 377.376 645.986 353.605 624.829 353.605Z" fill="black"/>
</svg>
