<svg width="873" height="940" viewBox="0 0 873 940" fill="none" xmlns="http://www.w3.org/2000/svg">
<path d="M337.863 352.1L41.2916 352.2C34.0469 352.229 26.9231 350.344 20.641 346.735C14.3589 343.127 9.1416 337.923 5.51701 331.65C1.89243 325.377 -0.0107654 318.258 4.58044e-05 311.014C0.010857 303.769 1.93529 296.656 5.57858 290.394L153.77 20.6196C157.385 14.353 162.586 9.14835 168.85 5.52886C175.114 1.90937 182.221 0.00253617 189.455 2.52817e-06C196.69 -0.00253111 203.798 1.89932 210.065 5.51442C216.331 9.12952 221.536 14.3305 225.156 20.5946L373.556 290.295C377.168 296.559 379.068 303.664 379.065 310.895C379.063 318.126 377.157 325.23 373.541 331.492C369.925 337.754 364.724 342.954 358.462 346.571C352.2 350.187 345.097 352.092 337.866 352.095L337.863 352.1ZM3.72659 310.994C3.72659 317.436 36.4516 303.554 39.8416 309.422C46.6236 321.158 27.7346 348.484 41.2896 348.479C41.2896 348.479 363.551 341.359 370.325 329.618C373.651 323.929 375.404 317.458 375.401 310.868C375.399 304.279 373.642 297.808 370.311 292.123L221.914 22.4226C218.649 16.7063 213.922 11.9615 208.218 8.67527C202.514 5.38903 196.038 3.67967 189.456 3.72258C175.907 3.72258 3.72658 304.556 3.72558 311L3.72659 310.994Z" fill="#4B5563"/>
<path d="M197.157 317.281C254.18 317.281 300.407 271.054 300.407 214.031C300.407 157.007 254.18 110.781 197.157 110.781C140.133 110.781 93.9066 157.007 93.9066 214.031C93.9066 271.054 140.133 317.281 197.157 317.281Z" fill="#9F0712"/>
<path d="M188.988 240.54L187.905 149.27H206.323L205.149 240.54H188.988ZM197.204 278.795C195.599 278.821 194.006 278.518 192.523 277.904C191.04 277.291 189.699 276.38 188.582 275.229C187.452 274.104 186.555 272.768 185.943 271.296C185.331 269.824 185.017 268.246 185.017 266.652C185.017 265.058 185.331 263.479 185.943 262.007C186.555 260.535 187.452 259.199 188.582 258.075C189.699 256.923 191.04 256.012 192.523 255.399C194.006 254.785 195.599 254.482 197.204 254.509C198.802 254.48 200.389 254.782 201.865 255.396C203.341 256.009 204.674 256.921 205.781 258.075C206.921 259.198 207.821 260.542 208.426 262.024C209.031 263.506 209.329 265.096 209.302 266.697C209.323 268.283 209.022 269.858 208.417 271.324C207.812 272.791 206.915 274.12 205.781 275.23C204.674 276.383 203.341 277.295 201.865 277.909C200.389 278.522 198.802 278.824 197.204 278.796V278.795Z" fill="white"/>
<path d="M872.959 938.107H521V939.235H872.959V938.107Z" fill="#E6E6E6"/>
<path d="M713.118 425.397C728.694 425.397 741.32 412.771 741.32 397.195C741.32 381.619 728.694 368.993 713.118 368.993C697.543 368.993 684.916 381.619 684.916 397.195C684.916 412.771 697.543 425.397 713.118 425.397Z" fill="#ED9DA0"/>
<path d="M727.783 411.859C727.783 411.859 731.167 445.701 736.808 451.342C742.449 456.983 697.325 447.958 697.325 447.958C697.325 447.958 704.093 419.758 699.581 415.244C695.069 410.73 727.783 411.859 727.783 411.859Z" fill="#ED9DA0"/>
<path d="M747.525 468.828C747.525 468.828 761.062 507.183 764.446 530.872C767.83 554.561 767.83 564.714 767.83 564.714C767.83 564.714 782.495 609.837 777.983 631.27C777.983 631.27 794.904 682.033 780.239 682.033C765.574 682.033 761.062 640.294 761.062 640.294L738.5 533.128L747.525 468.828Z" fill="#ED9DA0"/>
<path d="M754.293 486.872C754.293 486.872 750.909 445.133 736.244 441.749C729.244 440.133 717.871 437.749 707.897 435.693C690.522 432.116 672.597 440.359 664.703 456.243C663.222 459.124 662.237 462.234 661.791 465.443C659.535 483.492 648.254 483.492 658.407 507.182C668.56 530.872 666.307 555.689 666.307 555.689L673.075 615.477C673.075 615.477 644.87 694.442 647.13 747.462L621.18 877.19C621.18 877.19 626.82 890.727 642.613 883.958C642.613 883.958 682.096 817.402 678.713 768.894L719.324 678.648C719.324 678.648 747.524 764.382 755.424 772.278L775.73 894.112C775.73 894.112 794.907 899.752 803.93 894.112C803.93 894.112 807.314 776.792 788.137 757.612C788.137 757.612 768.96 676.391 773.472 654.957C777.984 633.523 779.112 600.809 745.272 571.479C745.272 571.479 749.784 559.07 735.119 552.302L746.4 516.202L754.293 486.872Z" fill="#3F3E52"/>
<path d="M683.54 438.798C683.235 438.754 682.924 438.718 682.607 438.689C672.619 437.789 664.019 445.763 663.573 455.782L661.791 495.898L640.359 634.656C640.359 634.656 612.159 668.498 631.334 670.756C650.509 673.014 653.896 633.53 653.896 633.53L678.714 559.077L688.867 490.264C688.867 490.264 700.709 478.422 695.78 451.046C695.279 447.98 693.828 445.149 691.632 442.951C689.436 440.754 686.606 439.301 683.54 438.798Z" fill="#ED9DA0"/>
<path d="M618.923 872.678L611.023 913.289C611.023 913.289 591.846 922.314 604.255 933.594C616.664 944.874 633.585 931.338 633.585 931.338L638.097 917.801L636.969 938.106H640.353L643.737 917.801C643.737 917.801 650.505 905.392 645.993 895.239V881.703L618.923 872.678Z" fill="#2F2E41"/>
<path d="M772.906 876.627L768.394 913.853C768.394 913.853 749.217 922.878 761.625 934.158C774.033 945.438 790.955 931.902 790.955 931.902L795.467 918.365L794.339 938.67H797.723L801.107 918.365C801.107 918.365 807.875 905.956 803.363 895.803V882.267L772.906 876.627Z" fill="#2F2E41"/>
<path d="M727.829 353.605C726.247 353.608 724.669 353.765 723.118 354.073C720.315 352.712 717.241 352.004 714.125 352H713.309C697.571 352 684.809 366.241 684.809 383.808H690.082L690.934 377.326L692.183 383.808H696.576C695.21 389.009 694.524 394.366 694.536 399.744V432.119H702.509L707.125 420.119L705.971 432.119H757.217L761.417 421.219L760.368 432.119H766.138V406.699C766.137 377.376 748.986 353.605 727.829 353.605Z" fill="black"/>
</svg>
